<svg width="225" height="268" viewBox="0 0 225 268" fill="none" xmlns="http://www.w3.org/2000/svg">
<path d="M0.64917 1.26031H224.509V85.823C224.509 124.568 210.086 206.735 113.414 267.887C113.414 267.887 8.6665 224.142 0.64917 85.823L0.64917 1.26031Z" fill="#A81D28"/>
<path d="M0.190186 1.03619H224.268V85.6575C224.268 124.416 209.828 206.628 113.068 267.822C113.068 267.822 8.21952 224.048 0.190186 85.6575L0.190186 1.03619Z" stroke="#12110C" stroke-width="0.306667"/>
<path d="M170.086 109.923C170.086 109.923 168.09 116.286 159.214 109.746L128.738 109.01C128.738 109.01 124.747 110.294 124.205 106.119C124.205 106.119 124.935 97.7792 124.565 97.0485C124.565 97.0485 124.747 94.6939 120.743 94.6939C120.743 94.6939 114.586 95.4179 114.403 89.9672C114.403 89.9672 113.327 84.1632 121.845 84.3565C121.845 84.3565 124.565 85.6219 124.747 82.1672C124.747 82.1672 124.389 58.5792 124.565 56.7779C124.565 56.7779 125.294 54.6112 121.114 54.2405C121.114 54.2405 115.134 55.5059 114.403 51.5272C114.403 51.5272 114.045 45.5405 118.042 45.1699C118.042 45.1699 122.934 45.5405 123.839 44.2632C123.839 44.2632 124.935 44.9805 124.747 40.6485L124.935 33.1952C124.935 33.1952 125.459 31.2059 128.55 31.4005C128.55 31.4005 134.177 31.7592 134.913 31.2059C134.913 31.2059 136.167 29.5819 136.538 28.8445C136.538 28.8445 139.446 28.6685 139.982 29.3979C139.982 29.3979 144.338 32.3005 160.843 31.2059C160.843 31.2059 163.387 31.2058 163.917 31.9365C163.917 31.9365 167.013 34.2899 168.821 31.7592C168.821 31.7592 171.541 31.2059 179.699 31.4005C179.699 31.4005 188.599 33.7485 194.751 28.6685L196.753 29.0339C196.753 29.0339 199.29 33.1952 201.103 31.9365C201.103 31.9365 206.549 31.4005 207.449 32.4832C207.449 32.4832 209.257 35.1859 208.355 42.2845C208.355 42.2845 207.279 45.3579 212.535 45.3579C212.535 45.3579 218.529 44.2632 217.791 49.8845C217.791 49.8845 219.422 56.2365 209.457 55.3352C209.457 55.3352 208.179 57.1485 208.355 58.4205C208.355 58.4205 208.179 79.0885 207.997 81.4605C207.997 81.4605 207.819 84.7285 212.165 84.5392C212.165 84.5392 217.975 84.1632 218.169 89.4312C218.169 89.4312 218.887 96.3245 210.534 95.0472C210.534 95.0472 207.997 95.4179 207.619 97.0485L207.279 106.119C207.279 106.119 207.449 110.653 202.381 109.558C201.657 109.558 174.089 110.118 171.723 109.394C171.723 109.394 170.439 109.211 170.086 109.923Z" fill="white"/>
<path d="M111.496 140.239C111.496 140.239 112.768 139.703 113.127 138.809C113.127 138.809 116.942 138.437 117.476 137.897L129.456 138.809C129.456 138.809 141.242 139.703 146.322 136.059C146.322 136.059 148.147 136.059 149.418 136.613C149.418 136.613 151.943 137.166 152.667 138.238L159.567 138.055C159.567 138.055 163.558 139.338 163.187 141.881V145.137C163.187 145.137 162.458 151.671 164.271 152.042H169.544C169.544 152.042 173.902 154.033 173.354 156.569C173.354 156.569 173.536 160.183 169.734 160.919C169.734 160.919 165.907 162.002 164.652 161.831C164.652 161.831 163.375 163.457 163.187 165.451L162.658 189.217C162.658 189.217 162.287 191.754 166.102 191.394C166.102 191.394 171.711 190.847 173.354 193.943C173.354 193.943 174.807 199.194 171.906 200.101L169.734 201.178L165.006 201.933C165.006 201.933 163.023 202.097 162.834 205.541V211.879C162.834 211.879 163.023 216.249 159.567 216.249L154.487 216.613C154.487 216.613 153.22 217.685 150.684 216.961C150.684 216.961 119.843 217.519 118.754 217.15L115.123 217.885C115.123 217.885 111.136 221.511 107.87 218.779L105.332 216.783C105.332 216.783 103.514 217.15 102.802 216.961C102.072 216.783 68.6936 217.331 68.6936 217.331C68.6936 217.331 61.6176 218.067 61.0816 215.695C61.0816 215.695 60.1763 206.453 60.5349 205.346C60.5349 205.346 60.5349 202.638 58.9043 202.462C58.9043 202.462 51.8283 202.097 51.6456 201.361C51.6456 201.361 47.8309 198.654 48.9203 195.938C48.9203 195.938 50.1976 192.295 54.0003 191.935C54.0003 191.935 59.8043 192.854 59.8043 191.218C59.8043 191.218 60.1763 190.129 60.1763 188.322C60.1763 188.322 60.5349 166.723 60.3523 165.275C60.3523 165.275 60.8936 162.555 58.5336 162.555C58.5336 162.555 55.9963 163.274 54.3709 162.191C54.3709 162.191 50.0149 162.374 49.1083 158.923C49.1083 158.923 48.3789 156.751 49.4616 154.921C49.4616 154.921 51.4643 150.935 57.2683 152.211C57.2683 152.211 60.5349 153.125 60.8936 150.775L60.7229 142.051C60.7229 142.051 59.9869 139.703 64.5256 138.437C64.5256 138.437 70.3296 140.062 72.1376 137.166C72.1376 137.166 74.1389 133.162 75.7523 135.883C75.7523 135.883 79.2136 139.157 88.6443 138.809C88.6443 138.809 104.974 137.526 105.332 138.238C105.332 138.238 109.324 138.809 110.407 140.062L111.496 140.239Z" fill="white"/>
<path d="M62.183 109.923C62.183 109.923 60.1816 116.286 51.2936 109.74L20.823 109.01C20.823 109.01 16.8323 110.294 16.2843 106.115C16.2843 106.115 17.015 97.779 16.6376 97.0483C16.6376 97.0483 16.8323 94.6817 12.835 94.6817C12.835 94.6817 6.67764 95.423 6.5003 89.979C6.5003 89.979 5.40564 84.1564 13.9296 84.3564C13.9296 84.3564 16.6376 85.6217 16.8323 82.1737C16.8323 82.1737 16.467 58.5964 16.6376 56.7724C16.6376 56.7724 17.379 54.6177 13.2056 54.2457C13.2056 54.2457 7.2123 55.5057 6.5003 51.515C6.5003 51.515 6.12964 45.5404 10.115 45.1697C10.115 45.1697 15.0136 45.5404 15.9256 44.2857C15.9256 44.2857 17.015 44.987 16.8323 40.6297L17.015 33.2017C17.015 33.2017 17.5616 31.2057 20.6283 31.3884C20.6283 31.3884 26.2683 31.747 26.9976 31.2057C26.9976 31.2057 28.2643 29.5817 28.611 28.8444C28.611 28.8444 31.531 28.6737 32.0723 29.3804C32.0723 29.3804 36.4163 32.3004 52.9403 31.2057C52.9403 31.2057 55.4656 31.2057 56.0136 31.9364C56.0136 31.9364 59.0923 34.2897 60.9056 31.747C60.9056 31.747 63.6256 31.2057 71.795 31.3884C71.795 31.3884 80.667 33.743 86.843 28.6737L88.8323 29.0457C88.8323 29.0457 91.3696 33.2017 93.2003 31.9364C93.2003 31.9364 98.6336 31.3884 99.5456 32.483C99.5456 32.483 101.364 35.203 100.44 42.2844C100.44 42.2844 99.363 45.363 104.62 45.363C104.62 45.363 110.6 44.2857 109.883 49.8844C109.883 49.8844 111.519 56.2363 101.542 55.335C101.542 55.335 100.264 57.1537 100.44 58.4204C100.44 58.4204 100.264 79.0883 100.087 81.4603C100.087 81.4603 99.911 84.7043 104.262 84.539C104.262 84.539 110.066 84.1563 110.242 89.4377C110.242 89.4377 110.966 96.3243 102.63 95.047C102.63 95.047 100.087 95.423 99.7163 97.0483L99.363 106.115C99.363 106.115 99.5456 110.652 94.4536 109.57C93.7296 109.57 66.175 110.106 63.807 109.394C63.807 109.394 62.5416 109.211 62.183 109.923Z" fill="white"/>
<path d="M170.086 109.923C170.086 109.923 168.09 116.286 159.214 109.746L128.738 109.01C128.738 109.01 124.747 110.294 124.205 106.119C124.205 106.119 124.935 97.7792 124.565 97.0485C124.565 97.0485 124.747 94.6939 120.743 94.6939C120.743 94.6939 114.586 95.4179 114.403 89.9672C114.403 89.9672 113.327 84.1632 121.845 84.3565C121.845 84.3565 124.565 85.6219 124.747 82.1672C124.747 82.1672 124.389 58.5792 124.565 56.7779C124.565 56.7779 125.294 54.6112 121.114 54.2405C121.114 54.2405 115.134 55.5059 114.403 51.5272C114.403 51.5272 114.045 45.5405 118.042 45.1699C118.042 45.1699 122.934 45.5405 123.839 44.2632C123.839 44.2632 124.935 44.9805 124.747 40.6485L124.935 33.1952C124.935 33.1952 125.459 31.2059 128.55 31.4005C128.55 31.4005 134.177 31.7592 134.913 31.2059C134.913 31.2059 136.167 29.5819 136.538 28.8445C136.538 28.8445 139.446 28.6685 139.982 29.3979C139.982 29.3979 144.338 32.3005 160.843 31.2059C160.843 31.2059 163.387 31.2058 163.917 31.9365C163.917 31.9365 167.013 34.2899 168.821 31.7592C168.821 31.7592 171.541 31.2059 179.699 31.4005C179.699 31.4005 188.599 33.7485 194.751 28.6685L196.753 29.0339C196.753 29.0339 199.29 33.1952 201.103 31.9365C201.103 31.9365 206.549 31.4005 207.449 32.4832C207.449 32.4832 209.257 35.1859 208.355 42.2845C208.355 42.2845 207.279 45.3579 212.535 45.3579C212.535 45.3579 218.529 44.2632 217.791 49.8845C217.791 49.8845 219.422 56.2365 209.457 55.3352C209.457 55.3352 208.179 57.1485 208.355 58.4205C208.355 58.4205 208.179 79.0885 207.997 81.4605C207.997 81.4605 207.819 84.7285 212.165 84.5392C212.165 84.5392 217.975 84.1632 218.169 89.4312C218.169 89.4312 218.887 96.3245 210.534 95.0472C210.534 95.0472 207.997 95.4179 207.619 97.0485L207.279 106.119C207.279 106.119 207.449 110.653 202.381 109.558C201.657 109.558 174.089 110.118 171.723 109.394C171.723 109.394 170.439 109.211 170.086 109.923Z" fill="#12110C"/>
<path d="M170.086 109.928C170.086 109.928 168.09 116.292 159.214 109.752L128.731 109.016C128.731 109.016 124.741 110.299 124.199 106.12C124.199 106.12 124.935 97.779 124.558 97.0483C124.558 97.0483 124.741 94.6936 120.743 94.6936C120.743 94.6936 114.581 95.4243 114.398 89.9723C114.398 89.9723 113.321 84.1683 121.838 84.3563C121.838 84.3563 124.558 85.623 124.741 82.1736C124.741 82.1736 124.382 58.5843 124.558 56.7776C124.558 56.7776 125.294 54.6056 121.114 54.2403C121.114 54.2403 115.127 55.507 114.398 51.527C114.398 51.527 114.045 45.5336 118.035 45.1696C118.035 45.1696 122.927 45.5336 123.835 44.263C123.835 44.263 124.935 44.9803 124.741 40.6416L124.935 33.1896C124.935 33.1896 125.453 31.2003 128.555 31.395C128.555 31.395 134.177 31.7536 134.907 31.2003C134.907 31.2003 136.162 29.5816 136.538 28.8443C136.538 28.8443 139.441 28.663 139.982 29.3936C139.982 29.3936 144.333 32.295 160.843 31.2003C160.843 31.2003 163.387 31.2003 163.917 31.9296C163.917 31.9296 167.013 34.2843 168.821 31.7536C168.821 31.7536 171.541 31.2003 179.699 31.395C179.699 31.395 188.599 33.743 194.757 28.663L196.759 29.0216C196.759 29.0216 199.295 33.1896 201.103 31.9296C201.103 31.9296 206.549 31.395 207.449 32.471C207.449 32.471 209.262 35.1856 208.362 42.2723C208.362 42.2723 207.28 45.3576 212.541 45.3576C212.541 45.3576 218.529 44.263 217.791 49.879C217.791 49.879 219.422 56.2363 209.457 55.3296C209.457 55.3296 208.185 57.143 208.362 58.4203C208.362 58.4203 208.185 79.0883 208.002 81.455C208.002 81.455 207.82 84.7216 212.17 84.5456C212.17 84.5456 217.986 84.1683 218.174 89.431C218.174 89.431 218.888 96.3243 210.54 95.047C210.54 95.047 208.002 95.4243 207.626 97.0483L207.28 106.12C207.28 106.12 207.449 110.659 202.387 109.564C201.663 109.564 174.089 110.118 171.723 109.394C171.723 109.394 170.439 109.216 170.086 109.928Z" stroke="#12110C" stroke-width="0.0133333"/>
<path d="M135.808 35.1911C135.808 35.1911 136.167 38.8231 136.167 39.7418C136.167 40.6418 135.632 92.1511 135.632 92.1511C135.632 92.1511 136.167 96.1418 132.735 98.1431C132.735 98.1431 131.816 98.4965 131.646 95.9591L132 41.5605C132 41.5605 132.364 34.8311 135.808 35.1911" fill="white"/>
<path d="M135.814 35.1852C135.814 35.1852 136.167 38.8172 136.167 39.7359C136.167 40.6412 135.638 92.1572 135.638 92.1572C135.638 92.1572 136.167 96.1479 132.735 98.1426C132.735 98.1426 131.816 98.5026 131.634 95.9652L131.999 41.5546C131.999 41.5546 132.358 34.8252 135.814 35.1852V35.1852Z" stroke="#12110C" stroke-width="0.016"/>
<path d="M129.827 98.6795C129.827 98.6795 130.187 47.5302 130.016 46.6235C129.827 45.7289 130.187 47.3649 130.187 47.3649C130.187 47.3649 129.644 38.4635 132.006 34.8262C132.006 34.8262 131.27 31.7595 127.102 35.5622L126.919 42.9902C126.919 42.9902 126.919 47.1702 123.116 46.9875C123.116 46.9875 118.76 46.7995 116.764 48.7955C116.764 48.7955 115.676 52.7915 119.843 52.0742C119.843 52.0742 126.378 52.0742 126.743 54.7755L126.378 82.1729C126.378 82.1729 127.831 86.7289 122.758 86.7289C122.758 86.7289 116.571 86.3409 116.764 90.1502C116.764 90.1502 118.042 93.4102 123.299 92.3329C123.299 92.3329 127.102 93.0449 126.919 96.6889V103.577C126.919 103.577 126.554 106.314 130.187 106.485H158.483C158.483 106.485 159.926 106.661 159.926 104.848C159.926 104.848 159.75 103.401 157.576 103.401L134 103.036C134 103.036 130.187 104.313 129.827 98.6795Z" fill="white"/>
<path d="M135.272 98.5968C135.272 98.5968 134.543 101.134 137.262 100.604H155.947L161.015 101.705C161.015 101.705 166.272 100.422 161.015 97.5248C161.015 97.5248 144.332 97.6902 142.884 97.3368C142.884 97.3368 139.435 96.4355 138.692 96.2542C138.692 96.2542 136.898 95.5302 135.272 98.5968Z" fill="white"/>
<path d="M135.266 98.5969C135.266 98.5969 134.537 101.14 137.256 100.61H155.946L161.016 101.71C161.016 101.71 166.277 100.422 161.016 97.5195C161.016 97.5195 144.332 97.6835 142.877 97.3369C142.877 97.3369 139.429 96.4302 138.693 96.2475C138.693 96.2475 136.892 95.5235 135.266 98.5969Z" stroke="#12110C" stroke-width="0.016"/>
<path d="M166.277 101.14C166.277 101.14 162.833 101.14 163.011 105.684C163.011 105.684 163.375 109.116 167.001 109.116C167.001 109.116 170.256 108.581 169.909 104.955C169.909 104.955 167.908 100.421 166.277 101.14" fill="white"/>
<path d="M168.82 99.3325C168.82 99.3325 170.451 97.5258 171.546 97.5258C171.546 97.5258 189.683 99.1498 192.744 96.9778C192.744 96.9778 195.482 96.4365 196.211 96.9778C196.211 96.9778 198.926 99.1498 198.926 100.422C198.926 100.422 198.748 102.063 195.482 101.134C195.482 101.134 174.984 101.334 173.895 101.334C173.895 101.334 168.262 102.594 168.82 99.3325" fill="white"/>
<path d="M168.814 99.3325C168.814 99.3325 170.445 97.5192 171.54 97.5192C171.54 97.5192 189.682 99.1445 192.75 96.9712C192.75 96.9712 195.486 96.4298 196.217 96.9712C196.217 96.9712 198.93 99.1445 198.93 100.427C198.93 100.427 198.754 102.07 195.486 101.139C195.486 101.139 174.978 101.339 173.889 101.339C173.889 101.339 168.256 102.599 168.814 99.3325V99.3325Z" stroke="#12110C" stroke-width="0.016"/>
<path d="M171.175 105.213C171.175 105.213 171.175 103.747 173.718 103.747L199.102 103.571C199.102 103.571 201.468 104.843 201.468 100.497C201.468 100.497 202.398 80.7253 202.48 58.956C202.51 52.4746 202.804 45.676 202.575 39.376C202.575 39.376 202.01 36.6506 201.28 36.0973C201.28 36.0973 201.28 33.2013 204.37 34.2906C204.37 34.2906 207.09 34.4733 206.366 38.6586L206.554 44.98C206.554 44.98 206.007 47.7173 210.892 46.9826C210.892 46.9826 215.784 47.7173 215.979 49.5186C215.979 49.5186 217.427 53.1626 211.634 52.792H207.443C207.443 52.792 205.636 53.876 206.178 56.06L205.636 82.3666C205.636 82.3666 205.271 86.8933 209.627 86.7226C209.627 86.7226 214.154 86.5346 215.066 87.9893C215.066 87.9893 218.168 92.5213 211.446 92.1573C211.446 92.1573 207.272 91.968 206.366 92.704C206.366 92.704 205.636 93.604 205.094 102.14C205.094 102.14 205.464 107.22 201.65 106.661C201.65 106.661 176.432 107.02 174.078 106.485C174.078 106.485 171.54 107.22 171.175 105.213" fill="white"/>
<path d="M138.533 33.5427L137.985 91.7854C137.985 91.7854 137.809 94.4881 142.343 95.0347C142.343 95.0347 147.599 95.5761 148.859 95.0347C148.859 95.0347 152.327 94.8467 161.197 95.2174C161.197 95.2174 163.387 97.4134 163.569 94.6707C163.569 94.6707 165.005 47.5294 164.3 37.7107C164.3 37.7107 164.1 33.5427 161.027 33.3601C161.027 33.3601 147.24 34.4734 145.969 33.3601L140.524 31.9241C140.524 31.9241 138.345 32.1001 138.533 33.5427Z" fill="white"/>
<path d="M167.184 36.457C167.184 36.457 166.643 63.8477 166.824 64.7544L166.466 87.7837L165.73 95.7717C165.73 95.7717 166.824 97.401 167.732 96.3184C167.732 96.3184 173.536 94.8464 177.162 95.4184C177.162 95.4184 188.783 96.4957 191.131 94.6704C191.131 94.6704 192.95 95.577 193.48 92.6744C193.48 92.6744 194.198 41.9024 193.863 40.9957C193.863 40.9957 194.563 33.7197 194.198 33.013C194.198 33.013 194.039 31.3824 190.948 32.825C190.948 32.825 191.302 34.285 174.083 33.7197C174.083 33.7197 167.555 33.5424 167.184 36.457Z" fill="white"/>
<path d="M196.035 35.7388L195.859 93.0455C195.859 93.0455 197.307 98.1428 199.661 97.6082C199.661 97.6082 200.015 96.5068 200.191 94.6935L200.927 40.0895C200.927 40.0895 199.101 31.4002 196.035 35.7388Z" fill="white"/>
<path d="M196.029 35.733L195.853 93.0517C195.853 93.0517 197.306 98.1503 199.661 97.6143C199.661 97.6143 200.021 96.513 200.197 94.6997L200.926 40.0837C200.926 40.0837 199.102 31.3943 196.029 35.733Z" stroke="#12110C" stroke-width="0.016"/>
<path d="M173.759 52.8983C173.218 51.4503 176.843 51.2676 176.843 51.2676L178.663 51.6263C179.935 51.4503 181.206 51.997 181.206 51.997C182.472 53.9876 180.294 55.0703 180.294 55.0703L179.57 57.437C179.382 59.4383 179.57 76.669 179.57 76.669C179.935 77.5636 181.383 79.189 181.383 79.189C181.383 80.8303 179.382 80.4716 179.382 80.4716L174.13 80.6543C172.494 80.4716 173.035 78.6516 173.035 78.6516C174.848 77.7463 175.396 74.473 175.396 74.473V56.525L173.759 52.8983Z" fill="#12110C"/>
<path d="M149.277 69.7695L148.918 75.3908L150.537 78.1055C151.638 79.5535 149.818 80.6548 149.818 80.6548L144.014 80.1121C142.937 79.5535 144.014 77.7455 144.014 77.7455C145.469 76.8521 145.65 74.4788 145.65 74.4788L145.469 63.9601L145.65 56.3428C145.65 55.4295 144.202 53.8108 144.202 53.8108C142.937 53.6281 143.295 51.9975 143.295 51.9975C143.655 51.0855 146.727 51.6268 146.727 51.6268H154.357C161.615 53.9881 160.526 59.2495 160.526 59.2495C161.074 64.5015 155.451 66.6908 155.451 66.6908L155.075 69.5935L160.343 77.9228C161.25 78.6521 161.074 79.3881 161.074 79.3881C160.343 81.3841 157.435 79.3881 157.435 79.3881L150.914 69.2228C150.366 68.4921 149.277 69.7695 149.277 69.7695ZM149.459 55.4295C149.635 59.4321 149.635 64.8721 149.635 64.8721C153.091 67.5975 155.075 63.7775 155.075 63.7775C159.602 59.4321 155.075 55.4295 154.357 54.3521C153.621 53.2575 149.995 54.1641 149.995 54.1641L149.459 55.4295Z" fill="#12110C"/>
<path d="M111.496 140.239C111.496 140.239 112.768 139.703 113.127 138.809C113.127 138.809 116.942 138.437 117.476 137.897L129.456 138.809C129.456 138.809 141.242 139.703 146.322 136.059C146.322 136.059 148.147 136.059 149.418 136.613C149.418 136.613 151.943 137.166 152.667 138.238L159.567 138.055C159.567 138.055 163.558 139.338 163.187 141.881V145.137C163.187 145.137 162.458 151.671 164.271 152.042H169.544C169.544 152.042 173.902 154.033 173.354 156.569C173.354 156.569 173.536 160.183 169.734 160.919C169.734 160.919 165.907 162.002 164.652 161.831C164.652 161.831 163.375 163.457 163.187 165.451L162.658 189.217C162.658 189.217 162.287 191.754 166.102 191.394C166.102 191.394 171.711 190.847 173.354 193.943C173.354 193.943 174.807 199.194 171.906 200.101L169.734 201.178L165.006 201.933C165.006 201.933 163.023 202.097 162.834 205.541V211.879C162.834 211.879 163.023 216.249 159.567 216.249L154.487 216.613C154.487 216.613 153.22 217.685 150.684 216.961C150.684 216.961 119.843 217.519 118.754 217.15L115.123 217.885C115.123 217.885 111.136 221.511 107.87 218.779L105.332 216.783C105.332 216.783 103.514 217.15 102.802 216.961C102.072 216.783 68.6936 217.331 68.6936 217.331C68.6936 217.331 61.6176 218.067 61.0816 215.695C61.0816 215.695 60.1763 206.453 60.5349 205.346C60.5349 205.346 60.5349 202.638 58.9043 202.462C58.9043 202.462 51.8283 202.097 51.6456 201.361C51.6456 201.361 47.8309 198.654 48.9203 195.938C48.9203 195.938 50.1976 192.295 54.0003 191.935C54.0003 191.935 59.8043 192.854 59.8043 191.218C59.8043 191.218 60.1763 190.129 60.1763 188.322C60.1763 188.322 60.5349 166.723 60.3523 165.275C60.3523 165.275 60.8936 162.555 58.5336 162.555C58.5336 162.555 55.9963 163.274 54.3709 162.191C54.3709 162.191 50.0149 162.374 49.1083 158.923C49.1083 158.923 48.3789 156.751 49.4616 154.921C49.4616 154.921 51.4643 150.935 57.2683 152.211C57.2683 152.211 60.5349 153.125 60.8936 150.775L60.7229 142.051C60.7229 142.051 59.9869 139.703 64.5256 138.437C64.5256 138.437 70.3296 140.062 72.1376 137.166C72.1376 137.166 74.1389 133.162 75.7523 135.883C75.7523 135.883 79.2136 139.157 88.6443 138.809C88.6443 138.809 104.974 137.526 105.332 138.238C105.332 138.238 109.324 138.809 110.407 140.062L111.496 140.239Z" fill="#12110C"/>
<path d="M111.496 140.015C111.496 140.015 112.755 139.486 113.127 138.579C113.127 138.579 116.935 138.209 117.476 137.666L129.451 138.579C129.451 138.579 141.241 139.486 146.321 135.842C146.321 135.842 148.147 135.842 149.417 136.395C149.417 136.395 151.949 136.942 152.661 138.014L159.572 137.837C159.572 137.837 163.557 139.121 163.187 141.657V144.919C163.187 144.919 162.463 151.453 164.276 151.813H169.544C169.544 151.813 173.895 153.814 173.359 156.351C173.359 156.351 173.541 159.966 169.733 160.702C169.733 160.702 165.913 161.785 164.659 161.607C164.659 161.607 163.381 163.238 163.187 165.234L162.651 189.005C162.651 189.005 162.287 191.53 166.095 191.177C166.095 191.177 171.711 190.642 173.359 193.719C173.359 193.719 174.813 198.977 171.911 199.889L169.733 200.973L165.005 201.709C165.005 201.709 163.016 201.885 162.84 205.317V211.681C162.84 211.681 163.016 216.03 159.572 216.03L154.492 216.395C154.492 216.395 153.22 217.479 150.684 216.755C150.684 216.755 119.843 217.302 118.753 216.926L115.116 217.661C115.116 217.661 111.136 221.293 107.869 218.555L105.327 216.559C105.327 216.559 103.513 216.926 102.796 216.755C102.065 216.559 68.6935 217.119 68.6935 217.119C68.6935 217.119 61.6121 217.85 61.0708 215.483C61.0708 215.483 60.1695 206.229 60.5281 205.134C60.5281 205.134 60.5281 202.426 58.8921 202.243C58.8921 202.243 51.8228 201.885 51.6348 201.154C51.6348 201.154 47.8255 198.43 48.9135 195.715C48.9135 195.715 50.1908 192.078 54.0001 191.711C54.0001 191.711 59.7988 192.643 59.7988 190.987C59.7988 190.987 60.1695 189.905 60.1695 188.103C60.1695 188.103 60.5281 166.506 60.3521 165.057C60.3521 165.057 60.8935 162.326 58.5268 162.326C58.5268 162.326 55.9908 163.05 54.3588 161.973C54.3588 161.973 50.0095 162.15 49.1028 158.706C49.1028 158.706 48.3668 156.534 49.4615 154.709C49.4615 154.709 51.4521 150.717 57.2615 151.989C57.2615 151.989 60.5281 152.907 60.8935 150.553L60.7108 141.834C60.7108 141.834 59.9815 139.486 64.5201 138.209C64.5201 138.209 70.3241 139.845 72.1375 136.942C72.1375 136.942 74.1268 132.946 75.7521 135.654C75.7521 135.654 79.2135 138.927 88.6375 138.579C88.6375 138.579 104.973 137.295 105.327 138.014C105.327 138.014 109.324 138.579 110.407 139.845L111.496 140.015Z" stroke="#12110C" stroke-width="0.0133333"/>
<path d="M116.211 211.527C116.211 211.527 118.395 210.426 119.85 210.803C121.303 211.163 142.519 210.626 142.519 210.626C142.519 210.626 151.767 211.345 153.227 210.061L155.387 209.343C155.387 209.343 156.299 208.261 156.299 206.818C156.299 205.353 156.482 200.454 156.482 200.454L157.035 198.654C157.035 198.654 156.847 196.839 157.035 148.398C157.035 148.398 157.747 144.607 155.387 142.235C155.387 142.235 155.387 140.798 156.111 140.97C156.847 141.165 156.482 141.165 156.482 141.165C156.482 141.165 159.743 140.239 160.279 141.51C160.279 141.51 161.744 145.849 160.467 148.398C160.467 148.398 160.102 153.666 162.846 153.666C162.846 153.666 163.916 154.762 166.095 154.209C166.095 154.209 170.81 154.762 170.81 156.198C170.81 156.198 170.81 159.477 167.543 158.93L163.182 159.282C163.182 159.282 160.279 159.842 160.65 163.275C161.02 166.723 160.467 191.394 160.467 191.394C160.467 191.394 160.467 194.309 165.012 194.126C165.012 194.126 170.628 193.938 170.628 195.562C170.628 195.562 172.075 199.189 168.091 199.378C168.091 199.378 160.467 199.189 161.02 201.361C161.02 201.361 160.467 206.453 160.102 207.347C160.102 207.347 160.844 211.527 159.92 212.258C159.92 212.258 159.384 214.606 154.492 214.247C154.492 214.247 123.299 214.07 118.395 214.43C118.395 214.43 115.487 214.07 116.211 211.527" fill="white"/>
<path d="M110.601 208.083C110.601 208.083 113.68 208.619 113.68 211.527C113.68 214.423 113.862 216.059 112.038 216.419C110.23 216.783 108.241 216.249 107.705 213.893C107.146 211.527 108.052 208.619 110.601 208.083Z" fill="white"/>
<path d="M114.221 206.635C114.221 206.635 117.483 204.445 118.753 204.823C118.753 204.823 135.255 205.899 140.347 205.01C145.42 204.098 142.336 204.823 142.336 204.823C142.336 204.823 146.693 204.823 147.952 203.179C147.952 203.179 149.229 202.831 149.953 204.098L152.661 207.011C152.661 207.011 152.867 208.807 149.771 208.625C149.771 208.625 120.196 208.625 119.301 208.807C119.301 208.807 113.68 209.702 114.221 206.635" fill="white"/>
<path d="M114.215 206.635C114.215 206.635 117.477 204.445 118.747 204.817C118.747 204.817 135.261 205.899 140.346 205.01C145.427 204.093 142.335 204.817 142.335 204.817C142.335 204.817 146.698 204.817 147.958 203.167C147.958 203.167 149.23 202.827 149.959 204.093L152.667 207.011C152.667 207.011 152.867 208.814 149.777 208.625C149.777 208.625 120.202 208.625 119.295 208.814C119.295 208.814 113.674 209.709 114.215 206.635V206.635Z" stroke="#12110C" stroke-width="0.016"/>
<path d="M71.237 142.241C71.237 142.241 72.509 142.241 72.325 144.419L71.9557 199.194C71.9557 199.194 72.509 202.831 69.4237 205.181C69.4237 205.181 67.781 207.17 67.781 204.098L68.5223 148.227C68.5223 148.227 68.6943 144.053 71.237 142.241" fill="white"/>
<path d="M71.237 142.236C71.237 142.236 72.509 142.236 72.337 144.413L71.9557 199.201C71.9557 199.201 72.509 202.838 69.4184 205.188C69.4184 205.188 67.769 207.177 67.769 204.104L68.5117 148.228C68.5117 148.228 68.6877 144.048 71.237 142.236Z" stroke="#12110C" stroke-width="0.016"/>
<path d="M68.3348 142.605C68.3348 142.605 66.1561 146.603 66.3388 147.516L66.1561 159.653C66.1561 159.653 65.9735 167.453 66.1561 168.365C66.3388 169.267 65.9735 192.125 65.9735 192.125C65.9735 192.125 65.7921 196.468 65.9735 197.928V207.719C65.9735 207.719 65.6095 212.08 68.8708 210.973C68.8708 210.973 100.8 210.256 102.801 210.808C102.801 210.808 105.692 211.345 104.62 212.799C104.62 212.799 104.62 214.077 102.607 213.705C102.607 213.705 87.5548 215.147 73.9561 214.612C73.9561 214.612 64.8855 215.147 64.3321 214.077C64.3321 214.077 62.8895 213.893 62.8895 208.625C62.8895 208.625 62.8895 203.74 62.5361 202.832C62.5361 202.832 62.8895 200.26 58.3575 199.736C58.3575 199.736 52.0108 200.831 51.8281 197.023C51.8281 197.023 52.7295 194.303 58.9041 194.656C58.9041 194.656 63.4375 195.385 62.5361 191.748L63.0721 164.921C63.0721 164.921 63.6308 160.184 60.5348 159.995C60.5348 159.995 57.6441 159.848 56.7201 160.184C56.7201 160.184 51.4641 160.184 51.8281 157.123C51.8281 157.123 53.6415 153.849 58.9041 154.579C58.9041 154.579 62.8895 155.299 63.0721 150.776C63.0721 150.776 62.8895 141.517 65.0615 141.164C65.0615 141.164 69.6068 141.328 68.3348 142.605" fill="white"/>
<path d="M73.7682 202.638C73.7682 202.638 76.3109 205.346 80.4909 205.187L105.138 205.54C105.138 205.54 107.876 205.734 107.704 207.17C107.704 207.17 107.316 209.343 104.067 208.619L74.3149 208.26L71.0429 208.459C71.0429 208.459 68.8642 208.083 72.3255 203.915L73.7682 202.638Z" fill="white"/>
<path d="M73.7618 202.633C73.7618 202.633 76.3058 205.346 80.4911 205.181L105.144 205.541C105.144 205.541 107.875 205.729 107.711 207.17C107.711 207.17 107.328 209.349 104.079 208.631L74.3098 208.271L71.0365 208.459C71.0365 208.459 68.8645 208.09 72.3191 203.91L73.7618 202.633Z" stroke="#12110C" stroke-width="0.016"/>
<path d="M149.954 200.266C149.954 200.266 152.131 204.446 153.221 205.016C153.221 205.016 155.217 207.354 154.675 203.186L155.034 150.942C155.034 150.942 154.486 149.123 155.034 146.232L152.862 142.24C152.862 142.24 150.495 140.428 150.495 143.324L150.137 199.018L149.954 200.266Z" fill="white"/>
<path d="M149.948 200.272C149.948 200.272 152.132 204.445 153.227 205.023C153.227 205.023 155.223 207.365 154.681 203.187L155.04 150.929C155.04 150.929 154.492 149.123 155.04 146.232L152.863 142.236C152.863 142.236 150.489 140.428 150.489 143.324L150.131 199.023L149.948 200.272Z" stroke="#12110C" stroke-width="0.016"/>
<path d="M109.689 175.429C109.689 175.429 109.871 179.768 109.318 183.931C109.023 186.232 110.053 196.828 109.135 202.261C109.135 202.261 108.97 204.08 105.143 202.456C105.143 202.456 81.9328 202.991 81.2088 202.261C81.2088 202.261 74.8634 202.456 74.3154 199.183C74.3154 199.183 75.2221 174.335 74.6808 173.411C74.6808 173.411 74.3154 159.812 74.6808 158.547C74.6808 158.547 75.2221 146.032 74.8634 144.583C74.8634 144.583 75.0461 141.68 74.4981 140.221C74.4981 140.221 74.4981 138.408 77.5888 139.492C77.5888 139.492 78.6608 141.493 84.6528 140.604C84.6528 140.604 89.0141 141.323 93.1888 140.775C93.1888 140.775 102.43 140.051 104.797 140.775C104.797 140.775 108.429 140.051 109.499 144.053L109.318 155.291L110.401 158.917L111.678 158.016L112.214 155.291L112.397 143.317C112.397 143.317 113.121 141.133 116.034 140.775C116.034 140.775 120.567 140.221 121.303 140.604C122.027 140.952 131.805 141.493 134.542 140.952C137.255 140.409 137.791 142.764 145.969 138.603C145.969 138.603 148.146 138.785 148.146 140.221C148.146 140.221 147.405 155.663 148.146 158.547C148.146 158.547 148.146 186.839 147.581 188.835L147.951 197.904C147.951 197.904 148.311 201.897 141.977 202.261C141.977 202.261 145.969 202.808 120.921 202.084C120.921 202.084 116.935 201.897 112.585 203.887C112.585 203.887 111.678 203.709 111.678 201.355C111.678 201.355 112.397 192.837 111.678 184.477L111.326 175.231L109.689 175.429Z" fill="white"/>
<path d="M93.3588 162.561C93.3588 162.561 93.9068 175.979 93.3588 177.791L93.1881 180.7C93.1881 180.7 93.9068 182.683 94.9961 183.419C94.9961 183.419 95.9081 185.949 93.7241 185.773C93.7241 185.773 89.1974 185.408 88.1081 185.58C88.1081 185.58 85.5588 185.58 88.1081 182.335C88.1081 182.335 89.0148 181.045 88.8268 177.791C88.8268 177.791 88.8268 162.561 89.1974 161.661C89.1974 161.661 89.5561 159.653 88.2841 159.107L86.1001 159.295L83.3921 161.832C83.3921 161.832 82.8388 164.564 81.5681 161.661V160.196L83.2108 155.845L84.3001 155.656C84.3001 155.656 85.9241 156.747 87.3721 157.123H95.9081L98.9868 155.656C98.9868 155.656 100.252 155.845 99.9054 157.476C99.9054 157.476 100.435 161.661 98.0801 162.192C98.0801 162.192 96.6268 161.661 95.9081 159.653C95.9081 159.653 93.5481 158.395 93.3588 162.561" fill="#12110C"/>
<path d="M133.441 157.664C133.441 157.664 126.56 157.116 126.389 164.55C126.389 164.55 125.641 169.642 133.271 172.91C133.271 172.91 138.899 175.618 138.521 179.062C138.521 179.062 137.797 185.232 131.811 182.152C131.811 182.152 128.915 180.692 129.108 179.062C129.108 179.062 128.185 177.061 127.101 177.43C127.101 177.43 125.824 177.785 126.389 183.777C126.389 183.777 126.389 186.137 129.108 183.777L130.539 184.148C130.539 184.148 135.443 188.138 139.605 183.23C139.605 183.23 144.149 179.062 140.876 173.988C140.876 173.988 138.521 170.373 134.355 168.554C134.355 168.554 130.363 166.724 129.463 163.644C129.463 163.644 130.733 158.193 135.62 161.096C135.62 161.096 137.439 163.274 138.521 163.644C138.521 163.644 139.976 163.644 139.605 160.365L139.263 157.664C139.263 157.664 138.899 155.644 136.349 157.664C136.349 157.664 133.989 158.558 133.441 157.664" fill="#12110C"/>
<path d="M111.319 153.844C112.585 154.768 112.767 156.576 112.767 156.576C116.394 166.182 119.485 180.162 119.485 180.162C120.385 181.958 122.022 183.418 122.022 183.418C125.106 184.501 122.022 185.402 122.022 185.402C120.75 185.956 116.589 185.237 116.589 185.237C114.398 184.849 115.299 184.142 115.299 184.142C116.217 183.236 115.487 179.597 115.487 179.597C115.299 178.161 113.681 175.796 113.681 175.796C112.957 175.429 111.685 177.061 111.685 177.061C111.685 177.061 109.695 177.79 109.501 177.061C109.318 176.324 108.053 175.637 108.053 175.637C105.874 175.637 104.974 181.045 104.974 181.045C106.239 185.585 104.974 184.849 104.974 184.849C103.891 186.316 100.435 185.237 100.435 185.237C98.8046 184.849 99.9046 183.584 99.9046 183.584C101.889 183.236 102.43 181.045 102.43 181.045C103.343 179.78 109.135 156.205 109.135 156.205C109.695 155.109 110.047 152.937 111.319 153.844ZM108.43 165.812C108.241 166.724 106.963 171.804 106.963 171.804L108.053 173.634C108.053 173.634 110.961 173.8 112.043 173.8C113.121 173.8 113.315 172.91 113.315 171.985C113.315 171.086 111.319 165.646 111.319 165.646L110.402 164.557L108.43 165.812Z" fill="#12110C"/>
<path d="M62.183 109.923C62.183 109.923 60.1816 116.286 51.2936 109.74L20.823 109.01C20.823 109.01 16.8323 110.294 16.2843 106.115C16.2843 106.115 17.015 97.779 16.6376 97.0483C16.6376 97.0483 16.8323 94.6817 12.835 94.6817C12.835 94.6817 6.67764 95.423 6.5003 89.979C6.5003 89.979 5.40564 84.1564 13.9296 84.3564C13.9296 84.3564 16.6376 85.6217 16.8323 82.1737C16.8323 82.1737 16.467 58.5964 16.6376 56.7724C16.6376 56.7724 17.379 54.6177 13.2056 54.2457C13.2056 54.2457 7.2123 55.5057 6.5003 51.515C6.5003 51.515 6.12964 45.5404 10.115 45.1697C10.115 45.1697 15.0136 45.5404 15.9256 44.2857C15.9256 44.2857 17.015 44.987 16.8323 40.6297L17.015 33.2017C17.015 33.2017 17.5616 31.2057 20.6283 31.3884C20.6283 31.3884 26.2683 31.747 26.9976 31.2057C26.9976 31.2057 28.2643 29.5817 28.611 28.8444C28.611 28.8444 31.531 28.6737 32.0723 29.3804C32.0723 29.3804 36.4163 32.3004 52.9403 31.2057C52.9403 31.2057 55.4656 31.2057 56.0136 31.9364C56.0136 31.9364 59.0923 34.2897 60.9056 31.747C60.9056 31.747 63.6256 31.2057 71.795 31.3884C71.795 31.3884 80.667 33.743 86.843 28.6737L88.8323 29.0457C88.8323 29.0457 91.3696 33.2017 93.2003 31.9364C93.2003 31.9364 98.6336 31.3884 99.5456 32.483C99.5456 32.483 101.364 35.203 100.44 42.2844C100.44 42.2844 99.363 45.363 104.62 45.363C104.62 45.363 110.6 44.2857 109.883 49.8844C109.883 49.8844 111.519 56.2363 101.542 55.335C101.542 55.335 100.264 57.1537 100.44 58.4204C100.44 58.4204 100.264 79.0883 100.087 81.4603C100.087 81.4603 99.911 84.7043 104.262 84.539C104.262 84.539 110.066 84.1563 110.242 89.4377C110.242 89.4377 110.966 96.3243 102.63 95.047C102.63 95.047 100.087 95.423 99.7163 97.0483L99.363 106.115C99.363 106.115 99.5456 110.652 94.4536 109.57C93.7296 109.57 66.175 110.106 63.807 109.394C63.807 109.394 62.5416 109.211 62.183 109.923Z" fill="#12110C"/>
<path d="M62.1831 109.928C62.1831 109.928 60.1818 116.292 51.2938 109.746L20.8178 109.016C20.8178 109.016 16.8258 110.299 16.2791 106.115C16.2791 106.115 17.0151 97.7789 16.6378 97.0483C16.6378 97.0483 16.8258 94.6883 12.8284 94.6883C12.8284 94.6883 6.67109 95.4296 6.49509 89.9843C6.49509 89.9843 5.40576 84.1563 13.9298 84.3563C13.9298 84.3563 16.6378 85.6229 16.8258 82.1789C16.8258 82.1789 16.4604 58.591 16.6378 56.7723C16.6378 56.7723 17.3791 54.611 13.2004 54.2456C13.2004 54.2456 7.20709 55.507 6.49509 51.5096C6.49509 51.5096 6.12442 45.5336 10.1151 45.1696C10.1151 45.1696 15.0071 45.5336 15.9258 44.275C15.9258 44.275 17.0151 44.987 16.8258 40.6296L17.0151 33.195C17.0151 33.195 17.5564 31.2003 20.6284 31.3883C20.6284 31.3883 26.2631 31.7416 26.9924 31.2003C26.9924 31.2003 28.2644 29.5816 28.6111 28.8443C28.6111 28.8443 31.5244 28.6683 32.0724 29.3803C32.0724 29.3803 36.4111 32.295 52.9404 31.2003C52.9404 31.2003 55.4658 31.2003 56.0138 31.9296C56.0138 31.9296 59.0924 34.2843 60.9058 31.7416C60.9058 31.7416 63.6311 31.2003 71.7951 31.3883C71.7951 31.3883 80.6738 33.731 86.8431 28.6683L88.8378 29.039C88.8378 29.039 91.3751 33.195 93.2004 31.9296C93.2004 31.9296 98.6338 31.3883 99.5578 32.471C99.5578 32.471 101.364 35.1976 100.447 42.2723C100.447 42.2723 99.3631 45.363 104.62 45.363C104.62 45.363 110.612 44.275 109.883 49.879C109.883 49.879 111.519 56.2363 101.547 55.3296C101.547 55.3296 100.264 57.1483 100.447 58.4203C100.447 58.4203 100.264 79.0883 100.094 81.455C100.094 81.455 99.9111 84.7096 104.262 84.5456C104.262 84.5456 110.066 84.1563 110.248 89.4429C110.248 89.4429 110.966 96.3243 102.63 95.0469C102.63 95.0469 100.094 95.4296 99.7231 97.0483L99.3631 106.115C99.3631 106.115 99.5578 110.659 94.4604 109.575C93.7364 109.575 66.1751 110.106 63.8071 109.394C63.8071 109.394 62.5418 109.216 62.1831 109.928Z" stroke="#12110C" stroke-width="0.0133333"/>
<path d="M27.8984 35.2029C27.8984 35.2029 28.2637 38.8229 28.2637 39.7295C28.2637 40.6362 27.7104 92.1509 27.7104 92.1509C27.7104 92.1509 28.2637 96.1535 24.8091 98.1375C24.8091 98.1375 23.9077 98.5082 23.7197 95.9709L24.0904 41.5549C24.0904 41.5549 24.4491 34.8375 27.8984 35.2029" fill="white"/>
<path d="M27.9051 35.1972C27.9051 35.1972 28.2691 38.8172 28.2691 39.7239C28.2691 40.6306 27.7157 92.1506 27.7157 92.1506C27.7157 92.1506 28.2691 96.1532 24.8091 98.1492C24.8091 98.1492 23.9077 98.5145 23.7197 95.9772L24.0784 41.5546C24.0784 41.5546 24.4437 34.8372 27.9051 35.1972V35.1972Z" stroke="#12110C" stroke-width="0.016"/>
<path d="M21.9122 98.6796C21.9122 98.6796 22.2655 47.5303 22.0948 46.6169C21.9122 45.7223 22.2655 47.3529 22.2655 47.3529C22.2655 47.3529 21.7362 38.4756 24.0895 34.8383C24.0895 34.8383 23.3602 31.7529 19.1868 35.5556L19.0215 42.9969C19.0215 42.9969 19.0215 47.1703 15.2015 46.9876C15.2015 46.9876 10.8455 46.7996 8.84417 48.8076C8.84417 48.8076 7.76017 52.7916 11.9228 52.0743C11.9228 52.0743 18.4628 52.0743 18.8215 54.7756L18.4628 82.1729C18.4628 82.1729 19.9162 86.7063 14.8308 86.7063C14.8308 86.7063 8.66684 86.3583 8.84417 90.1676C8.84417 90.1676 10.1148 93.4343 15.3842 92.3396C15.3842 92.3396 19.1868 93.0689 19.0215 96.6783V103.589C19.0215 103.589 18.6388 106.314 22.2655 106.48H50.5682C50.5682 106.48 52.0175 106.661 52.0175 104.842C52.0175 104.842 51.8335 103.412 49.6682 103.412L26.0975 103.036C26.0975 103.036 22.2655 104.308 21.9122 98.6796Z" fill="white"/>
<path d="M26.81 99.05C26.81 99.05 26.0914 101.599 28.7994 101.039H47.4834L52.5634 102.123C52.5634 102.123 57.838 100.857 52.5634 97.9486C52.5634 97.9486 35.8754 98.1433 34.4207 97.778C34.4207 97.778 30.9834 96.8726 30.254 96.6886C30.254 96.6886 28.4354 95.9713 26.81 99.05Z" fill="white"/>
<path d="M26.8042 99.0442C26.8042 99.0442 26.0855 101.604 28.7935 101.034H47.4842L52.5708 102.128C52.5708 102.128 57.8442 100.863 52.5708 97.9495C52.5708 97.9495 35.8748 98.1428 34.4215 97.7668C34.4215 97.7668 30.9775 96.8655 30.2482 96.6895C30.2482 96.6895 28.4282 95.9655 26.8042 99.0442Z" stroke="#12110C" stroke-width="0.016"/>
<path d="M57.8327 101.599C57.8327 101.599 54.3781 101.599 54.5594 106.108C54.5594 106.108 54.9247 109.575 58.5447 109.575C58.5447 109.575 61.8127 109.011 61.4594 105.401C61.4594 105.401 59.4567 100.857 57.8327 101.599" fill="white"/>
<path d="M60.364 99.7683C60.364 99.7683 61.9893 97.955 63.0893 97.955C63.0893 97.955 81.2213 99.5923 84.3053 97.419C84.3053 97.419 87.036 96.8776 87.7493 97.419C87.7493 97.419 90.4693 99.5923 90.4693 100.858C90.4693 100.858 90.292 102.506 87.036 101.599C87.036 101.599 66.5213 101.77 65.444 101.77C65.444 101.77 59.816 103.035 60.364 99.7683" fill="white"/>
<path d="M60.3581 99.768C60.3581 99.768 61.9888 97.9494 63.0835 97.9494C63.0835 97.9494 81.2208 99.592 84.3048 97.4187C84.3048 97.4187 87.0421 96.872 87.7541 97.4187C87.7541 97.4187 90.4741 99.592 90.4741 100.863C90.4741 100.863 90.2981 102.512 87.0421 101.599C87.0421 101.599 66.5275 101.776 65.4381 101.776C65.4381 101.776 59.8101 103.041 60.3581 99.768V99.768Z" stroke="#12110C" stroke-width="0.016"/>
<path d="M63.2664 105.213C63.2664 105.213 63.2664 103.771 65.7917 103.771L91.205 103.583C91.205 103.583 93.553 104.836 93.553 100.497C93.553 100.497 94.4837 80.7187 94.5664 58.9494C94.601 52.4747 94.8837 45.676 94.637 39.376C94.637 39.376 94.0957 36.6627 93.3717 36.1027C93.3717 36.1027 93.3717 33.2014 96.4677 34.3014C96.4677 34.3014 99.169 34.4734 98.4504 38.64L98.6277 44.992C98.6277 44.992 98.0864 47.712 102.984 46.988C102.984 46.988 107.876 47.712 108.052 49.5254C108.052 49.5254 109.518 53.1627 103.72 52.792H99.5517C99.5517 52.792 97.733 53.876 98.2744 56.06L97.733 82.3547C97.733 82.3547 97.3557 86.888 101.724 86.7227C101.724 86.7227 106.257 86.5347 107.152 87.9827C107.152 87.9827 110.248 92.5214 103.532 92.1574C103.532 92.1574 99.357 91.968 98.4504 92.692C98.4504 92.692 97.733 93.616 97.185 102.129C97.185 102.129 97.5437 107.209 93.7357 106.661C93.7357 106.661 68.5224 107.015 66.1744 106.479C66.1744 106.479 63.625 107.209 63.2664 105.213" fill="white"/>
<path d="M30.6068 33.5546L30.0774 91.7853C30.0774 91.7853 29.8948 94.4879 34.4268 95.0346C34.4268 95.0346 39.6961 95.5826 40.9561 95.0346C40.9561 95.0346 44.3934 94.8586 53.2881 95.2239C53.2881 95.2239 55.4668 97.3893 55.6428 94.6826C55.6428 94.6826 57.0974 47.5119 56.3721 37.7226C56.3721 37.7226 56.1961 33.5546 53.1001 33.3719C53.1001 33.3719 39.3254 34.4559 38.0534 33.3719L32.6201 31.9173C32.6201 31.9173 30.4308 32.0893 30.6068 33.5546Z" fill="white"/>
<path d="M88.1082 35.7331L87.9309 93.0571C87.9309 93.0571 89.3856 98.1504 91.7522 97.6077C91.7522 97.6077 92.1109 96.5131 92.2882 94.6877L93.0242 40.0837C93.0242 40.0837 91.2042 31.3757 88.1082 35.7331Z" fill="white" stroke="#12110C" stroke-width="0.016"/>
<path d="M88.1082 35.7331L87.9309 93.0571C87.9309 93.0571 89.3856 98.1504 91.7522 97.6077C91.7522 97.6077 92.1109 96.5131 92.2882 94.6877L93.0242 40.0837C93.0242 40.0837 91.2042 31.3757 88.1082 35.7331Z" stroke="#12110C" stroke-width="0.016"/>
<path d="M59.2863 36.2213C59.2863 36.2213 58.7397 63.6067 58.9103 64.5253L58.5677 87.5653L57.833 95.524C57.833 95.524 58.9103 97.1787 59.8223 96.0827C59.8223 96.0827 65.633 94.64 69.2583 95.1773C69.2583 95.1773 80.873 96.272 83.2223 94.452C83.2223 94.452 85.0357 95.3533 85.5823 92.4507C85.5823 92.4507 86.301 41.672 85.941 40.76C85.941 40.76 86.6717 33.5133 86.301 32.796C86.301 32.796 86.1183 31.1467 83.0517 32.5893C83.0517 32.5893 83.4037 34.0547 66.1797 33.5133C66.1797 33.5133 59.6463 33.3253 59.2863 36.2213" fill="white"/>
<path d="M53.6823 52.9986L52.041 56.46C52.041 56.46 48.0663 74.044 45.8943 77.664C45.8943 77.664 45.529 81.3026 42.445 78.3933C42.445 78.3933 35.3637 56.0893 35.0037 55.36L32.6437 53.728C32.6437 53.728 31.213 51.7333 33.7383 51.556L40.449 51.7333C40.449 51.7333 42.621 53.54 39.725 55.5586C39.725 55.5586 40.085 58.456 43.893 69.5053C43.893 69.5053 44.9757 73.6786 46.2477 70.5933L49.8797 57.7133L48.7903 53.9053C48.7903 53.9053 47.6957 52.092 49.3383 51.916C49.3383 51.916 53.1477 51.556 53.6823 52.9986" fill="#12110C"/>
<path d="M64.2137 55.9063L64.0191 75.1329L63.4897 76.5809C63.4897 76.5809 61.6711 78.9303 62.9364 79.1183C62.9364 79.1183 61.3177 80.2129 74.5391 80.3889C74.5391 80.3889 79.6311 81.2903 78.3537 74.7623C78.3537 74.7623 77.8124 72.4063 75.9871 75.8569C75.9871 75.8569 75.4457 78.7463 68.9297 77.8463C68.9297 77.8463 67.4751 76.5809 67.4751 75.1329V67.1449C67.4751 67.1449 67.2817 65.1423 70.3711 65.3489C70.3711 65.3489 73.8151 67.5156 74.3631 66.5969C74.3631 66.5969 75.6284 63.7063 74.3631 61.8876C74.3631 61.8876 72.7257 61.7169 72.5497 62.4409C72.5497 62.4409 71.4604 64.6063 68.3764 63.3356C68.3764 63.3356 66.9284 60.4396 67.8337 58.0783C67.8337 58.0783 67.4751 53.5409 70.5604 53.9103C70.5604 53.9103 74.1857 54.6289 74.5391 55.7303C74.5391 55.7303 75.4457 57.9143 76.3644 55.3716L75.4457 52.2743C75.4457 52.2743 74.9164 51.0023 74.0031 51.3676C74.0031 51.3676 67.8337 52.2743 67.0991 51.5383L62.2004 52.0916C62.2004 52.0916 61.4831 53.9103 63.6671 54.8063C63.6671 54.8063 64.2137 55.1769 64.2137 55.9063Z" fill="#12110C"/>
</svg>
