<svg width="25" height="24" viewBox="0 0 25 24" fill="none" xmlns="http://www.w3.org/2000/svg">
<path d="M20.0535 20H4.05347C3.52303 20 3.01433 19.7893 2.63925 19.4142C2.26418 19.0391 2.05347 18.5304 2.05347 18V5.913C2.0759 5.39779 2.29648 4.91116 2.66914 4.5547C3.04181 4.19824 3.53777 3.99951 4.05347 4H20.0535C20.5839 4 21.0926 4.21071 21.4677 4.58579C21.8428 4.96086 22.0535 5.46957 22.0535 6V18C22.0535 18.5304 21.8428 19.0391 21.4677 19.4142C21.0926 19.7893 20.5839 20 20.0535 20ZM4.05347 7.868V18H20.0535V7.868L12.0535 13.2L4.05347 7.868ZM4.85347 6L12.0535 10.8L19.2535 6H4.85347Z" fill="white"/>
</svg>
