<svg width="118" height="65" viewBox="0 0 118 65" fill="none" xmlns="http://www.w3.org/2000/svg">
<path d="M30.7535 43H25.6235L17.0435 30.01V43H11.9135V21.94H17.0435L25.6235 34.99V21.94H30.7535V43ZM37.0521 24.52C36.1521 24.52 35.4121 24.26 34.8321 23.74C34.2721 23.2 33.9921 22.54 33.9921 21.76C33.9921 20.96 34.2721 20.3 34.8321 19.78C35.4121 19.24 36.1521 18.97 37.0521 18.97C37.9321 18.97 38.6521 19.24 39.2121 19.78C39.7921 20.3 40.0821 20.96 40.0821 21.76C40.0821 22.54 39.7921 23.2 39.2121 23.74C38.6521 24.26 37.9321 24.52 37.0521 24.52ZM39.6021 26.26V43H34.4721V26.26H39.6021ZM53.5497 43L48.4497 35.98V43H43.3197V20.8H48.4497V33.07L53.5197 26.26H59.8497L52.8897 34.66L59.9097 43H53.5497ZM60.8446 34.63C60.8446 32.89 61.1946 31.37 61.8946 30.07C62.6146 28.77 63.6046 27.77 64.8646 27.07C66.1446 26.37 67.6046 26.02 69.2446 26.02C71.3446 26.02 73.0946 26.57 74.4946 27.67C75.9146 28.77 76.8446 30.32 77.2846 32.32H71.8246C71.3646 31.04 70.4746 30.4 69.1546 30.4C68.2146 30.4 67.4646 30.77 66.9046 31.51C66.3446 32.23 66.0646 33.27 66.0646 34.63C66.0646 35.99 66.3446 37.04 66.9046 37.78C67.4646 38.5 68.2146 38.86 69.1546 38.86C70.4746 38.86 71.3646 38.22 71.8246 36.94H77.2846C76.8446 38.9 75.9146 40.44 74.4946 41.56C73.0746 42.68 71.3246 43.24 69.2446 43.24C67.6046 43.24 66.1446 42.89 64.8646 42.19C63.6046 41.49 62.6146 40.49 61.8946 39.19C61.1946 37.89 60.8446 36.37 60.8446 34.63ZM82.6087 24.52C81.7087 24.52 80.9687 24.26 80.3887 23.74C79.8287 23.2 79.5487 22.54 79.5487 21.76C79.5487 20.96 79.8287 20.3 80.3887 19.78C80.9687 19.24 81.7087 18.97 82.6087 18.97C83.4887 18.97 84.2087 19.24 84.7687 19.78C85.3487 20.3 85.6387 20.96 85.6387 21.76C85.6387 22.54 85.3487 23.2 84.7687 23.74C84.2087 24.26 83.4887 24.52 82.6087 24.52ZM85.1587 26.26V43H80.0287V26.26H85.1587ZM96.4964 43.24C94.8564 43.24 93.3764 42.89 92.0564 42.19C90.7564 41.49 89.7264 40.49 88.9664 39.19C88.2264 37.89 87.8564 36.37 87.8564 34.63C87.8564 32.91 88.2364 31.4 88.9964 30.1C89.7564 28.78 90.7964 27.77 92.1164 27.07C93.4364 26.37 94.9164 26.02 96.5564 26.02C98.1964 26.02 99.6764 26.37 100.996 27.07C102.316 27.77 103.356 28.78 104.116 30.1C104.876 31.4 105.256 32.91 105.256 34.63C105.256 36.35 104.866 37.87 104.086 39.19C103.326 40.49 102.276 41.49 100.936 42.19C99.6164 42.89 98.1364 43.24 96.4964 43.24ZM96.4964 38.8C97.4764 38.8 98.3064 38.44 98.9864 37.72C99.6864 37 100.036 35.97 100.036 34.63C100.036 33.29 99.6964 32.26 99.0164 31.54C98.3564 30.82 97.5364 30.46 96.5564 30.46C95.5564 30.46 94.7264 30.82 94.0664 31.54C93.4064 32.24 93.0764 33.27 93.0764 34.63C93.0764 35.97 93.3964 37 94.0364 37.72C94.6964 38.44 95.5164 38.8 96.4964 38.8Z" fill="#EF6F6C"/>
</svg>
