<svg width="40" height="40" viewBox="0 0 40 40" fill="none" xmlns="http://www.w3.org/2000/svg">
<path d="M0 19.9999C0 9.20494 8.93875 0.533691 20 0.533691C31.0613 0.533691 40 9.20494 40 19.9999C40 30.7949 31.0613 39.4662 20 39.4662C8.93875 39.4662 0 30.7949 0 19.9999ZM19.5563 26.6337C18.0156 26.6402 16.4769 26.5231 14.955 26.2837C13.7162 26.0149 12.9162 25.3074 12.39 24.3374C11.9462 23.3612 11.68 21.7712 11.77 19.6424C11.77 18.4974 11.855 17.4362 11.94 16.3674C12.1213 15.3137 12.2062 14.4274 12.39 13.7124L12.565 13.0087V12.9237C12.565 12.7474 12.39 12.5649 12.2063 12.5649L9.64125 12.2137H9.55625C9.38125 12.2137 9.2 12.3899 9.115 12.4799C9.115 12.6499 9.02375 12.7412 8.93875 13.0987C8.76375 13.8937 8.6725 14.6037 8.4975 15.5737C8.31337 16.7143 8.22431 17.8683 8.23125 19.0237C8.23125 19.0237 8.14625 19.2899 8.23125 21.4137C8.32125 23.5424 8.6725 25.2224 9.3825 26.5499C10.0925 27.7862 11.2375 28.7562 12.9237 29.2899C14.6037 29.8249 16.9025 30.0912 19.825 30.0912H20.175C23.0987 30.0912 25.3962 29.8249 27.0762 29.2899C28.7625 28.7637 29.915 27.7862 30.6175 26.5499C31.3275 25.2212 31.6863 23.5412 31.7688 21.4137C31.86 19.2899 31.7688 19.0237 31.7688 19.0237C31.7688 17.7874 31.6 16.6337 31.5025 15.5799C31.3275 14.5112 31.2425 13.8012 31.0613 13.0987C30.9763 12.7474 30.9762 12.5649 30.885 12.4799C30.885 12.3049 30.71 12.2137 30.4437 12.2137H30.3588L27.7875 12.5649C27.6112 12.5649 27.4362 12.7462 27.4362 12.9237V13.0087L27.6113 13.7174C27.7875 14.4274 27.8725 15.3137 28.055 16.3674C28.2313 17.4362 28.2312 18.4974 28.2312 19.6424C28.2312 21.7712 28.055 23.2762 27.6113 24.3374C27.17 25.3137 26.285 26.0162 25.0463 26.2837C23.98 26.5499 22.3913 26.6337 20.445 26.6337H19.5563Z" fill="black"/>
</svg>
